inDegrees=no
num_controls=7
num_derivatives=13
num_iterations=154
num_multipliers=7
num_parameters=0
num_slacks=7
num_states=26
objective=0.497094
objective_accelerations=0.041904
objective_balance=0.003542
objective_effort=0.039539
objective_height=0.406276
objective_ligament=0.005832
solver_duration=1753.637990
status=Solve_Succeeded
success=true
DataType=double
version=3
OpenSimVersion=4.5
endheader
time	/jointset/ground_pelvis/pelvis_tilt/value	/jointset/ground_pelvis/pelvis_tx/value	/jointset/ground_pelvis/pelvis_ty/value	/jointset/hip_r/hip_flexion_r/value	/jointset/hip_r/hip_adduction_r/value	/jointset/hip_r/hip_rotation_r/value	/jointset/back/lumbar_extension/value	/jointset/patellofemoral_r/patellar_flexion_r/value	/jointset/knee_r/knee_flexion_r/value	/jointset/knee_r/knee_adduction_r/value	/jointset/knee_r/knee_rotation_r/value	/jointset/ankle_r/ankle_angle_r/value	/jointset/subtalar_r/subtalar_angle_r/value	/jointset/ground_pelvis/pelvis_tilt/speed	/jointset/ground_pelvis/pelvis_tx/speed	/jointset/ground_pelvis/pelvis_ty/speed	/jointset/hip_r/hip_flexion_r/speed	/jointset/hip_r/hip_adduction_r/speed	/jointset/hip_r/hip_rotation_r/speed	/jointset/back/lumbar_extension/speed	/jointset/patellofemoral_r/patellar_flexion_r/speed	/jointset/knee_r/knee_flexion_r/speed	/jointset/knee_r/knee_adduction_r/speed	/jointset/knee_r/knee_rotation_r/speed	/jointset/ankle_r/ankle_angle_r/speed	/jointset/subtalar_r/subtalar_angle_r/speed	/forceset/tau_hip_flexion_r	/forceset/tau_hip_adduction_r	/forceset/tau_hip_rotation_r	/forceset/tau_knee_flexion_r	/forceset/tau_ankle_angle_r	/forceset/tau_subtalar_angle_r	/forceset/tau_lumbar_extension	lambda_cid13_p0	lambda_cid14_p0	lambda_cid14_p1	lambda_cid14_p2	lambda_cid14_p3	lambda_cid14_p4	lambda_cid14_p5	/jointset/ground_pelvis/pelvis_tilt/accel	/jointset/ground_pelvis/pelvis_tx/accel	/jointset/ground_pelvis/pelvis_ty/accel	/jointset/hip_r/hip_flexion_r/accel	/jointset/hip_r/hip_adduction_r/accel	/jointset/hip_r/hip_rotation_r/accel	/jointset/back/lumbar_extension/accel	/jointset/patellofemoral_r/patellar_flexion_r/accel	/jointset/knee_r/knee_flexion_r/accel	/jointset/knee_r/knee_adduction_r/accel	/jointset/knee_r/knee_rotation_r/accel	/jointset/ankle_r/ankle_angle_r/accel	/jointset/subtalar_r/subtalar_angle_r/accel	gamma_cid13_p0	gamma_cid14_p0	gamma_cid14_p1	gamma_cid14_p2	gamma_cid14_p3	gamma_cid14_p4	gamma_cid14_p5
1	-0.2474453357484702	0.01295294118506655	0.6981024639376493	1.305909346406504	-0.2476616152862646	0.009949133900485843	-0.4363009144231034	1.301536941806856	1.301536941806838	0.0275692085929935	0.1744605273331819	0.4363211924412679	0.08250477598963718	0.0001665922161294865	0.004668553478123697	0.01500970952753585	-0.04187730594976473	0.0002044414490251901	-0.01154902311010428	0.003194428309303353	-0.04800378673840145	-0.04800378673840325	0.001035480347526066	-0.0003551935308074409	-0.00812014151521019	-0.00225211681391081	-0.2453220603965318	0.01222202480938736	0.01928603823058903	-0.4906116818292851	-0.008844737788415906	0.004506257070281568	0.2765722139986878	-0.05802100210985577	-51.33726844519877	-6.780183301095764	1.253603682907014	16.65894621218897	-792.0421424748967	64.2045769994759	1.159979517284293	0.09884798933898994	1.587290804207161	-4.932980878031611	0.02447603456664665	-1.107673152378978	0.2204511287627319	-4.973102115889117	-4.973102115889107	0.2036619349409841	-0.01445732677843828	-1.419968545011516	-0.4341434826124981	6.896247763546828e-10	-3.431432884917754e-09	5.610295228767105e-09	6.85234809241534e-09	7.312552965274333e-09	-3.990879685979789e-09	3.537274565900674e-09
1.01	-0.2473867216942014	0.01300463005377528	0.698331764312683	1.30524510018102	-0.2476582430840922	0.009778701678309507	-0.4362558724727448	1.300808391166577	1.300808391166571	0.02758996030143949	0.174455898683582	0.4361690467943355	0.08246073825190914	0.01151778806835799	0.005678043833896743	0.03084789827380017	-0.09094759671494769	0.0004698328984834735	-0.02253952348345461	0.005946344527377522	-0.09772062843199308	-0.09772062843201054	0.003117872841154232	-0.0005677105379550817	-0.02230967848592321	-0.006554919504089174	-0.2462232481725577	0.01245351427453947	0.0192886904121377	-0.4897038053353504	-0.009977443877703196	0.004618336646787179	0.277423608758446	-0.06006882653258751	-51.71150235564202	-6.789956238236202	1.247078572443326	16.81009156590269	-792.3856227893664	64.12509614128051	1.116925466828965	0.1033239666525384	1.581711222778205	-4.89040157771839	0.02754758057018347	-1.095054866885447	0.3224192810130874	-4.973118423234908	-4.97311842323718	0.2109818127470824	-0.02422259014762722	-1.418551023758887	-0.4282679315876742	7.995284465300543e-10	-2.770480881305059e-09	2.014857643356875e-08	6.488925581449282e-09	4.390256117453199e-09	-7.990828176712265e-09	1.869063303642656e-08
1.02	-0.2472157485118924	0.01306667870763325	0.6987193722377679	1.30409088136749	-0.247652221591338	0.009498301174993349	-0.4361793398776012	1.299582243463932	1.29958224346394	0.02763162671604672	0.1744492301234396	0.435874984827519	0.08237368863340608	0.02263841782607273	0.006740510507971866	0.04667121953777279	-0.1398718235583923	0.0007342995653213933	-0.03354267933970172	0.009492557252785262	-0.1475231992112144	-0.1475231992112479	0.005218421581714385	-0.0007631756436897188	-0.0365034054829431	-0.01085449296895422	-0.2471244359485677	0.01268500373972654	0.01929134259374658	-0.4887959288414142	-0.01111014996698235	0.004730416223353831	0.2782750035182138	-0.06386363266404482	-52.09650425249347	-6.799894649591899	1.238615404203003	16.98255861967455	-792.9000236951913	64.05338656153909	1.113866298381484	0.1094432529995005	1.584317307748823	-4.903768093684007	0.0242910780425436	-1.11020424895836	0.3793104302290778	-4.990247933014999	-4.99024793301507	0.207293184327392	-0.01104694649577546	-1.420806550272722	-0.4334976375498274	8.87496629963339e-10	-2.803952376058847e-09	2.98158565209638e-08	8.533412278022796e-09	3.602736752628991e-09	-1.021625070104846e-08	2.722440334156046e-08
1.03	-0.246934827780607	0.01313964885411801	0.699265055515701	1.302448365939908	-0.247643569234955	0.009107838501994987	-0.4360632599248548	1.297857760772705	1.29785776077267	0.02769441477650464	0.1744407372203835	0.4354389766166938	0.08224366005014047	0.03349379990514325	0.007865569678775672	0.06245424340677983	-0.188582173798099	0.0009955785793366125	-0.04454736938347848	0.01387101320595255	-0.197375530979942	-0.1973755309799519	0.007345220957780527	-0.0009295821851070742	-0.05069773990792678	-0.01514984483581033	-0.2476473684140578	0.01282712235250623	0.01930685590603617	-0.4877412842376639	-0.01179506950284177	0.004804672857722481	0.2788457866265638	-0.06993041081750263	-52.31067432602045	-6.793804348945086	1.224691052189639	17.00415463626522	-792.9752187076988	63.98189044793602	1.063585435584657	0.1158454455657219	1.573613532078234	-4.8473049846889	0.02696044200307498	-1.095230775772913	0.4892501635531678	-4.98305478613588	-4.983054786132201	0.2162822018993224	-0.01855977645743909	-1.418674181153659	-0.427339521113789	9.752409818992553e-10	-2.844509824877602e-09	3.943343251532406e-08	1.060246947671407e-08	2.837000831508847e-09	-1.242356581756428e-08	3.56906268286801e-08
1.04	-0.246546910973958	0.01322423123160008	0.6999682327534447	1.300320219710809	-0.2476323212626468	0.008607403049826795	-0.4358989680154203	1.295634688966324	1.295634688966249	0.02777865260824735	0.1744307557982283	0.4348610396031019	0.08207072083623447	0.04403763290082012	0.009062956707431262	0.07817001149987883	-0.2369979838607921	0.001253422750226179	-0.05553723517467966	0.0191349485868297	-0.24724102224204	-0.2472410222420262	0.009508375839968965	-0.001060879466232278	-0.06488916603460897	-0.01943661909707817	-0.2481703008795408	0.01296924096531159	0.01932236921837125	-0.4866866396339131	-0.01247998903869527	0.004878929492135826	0.2794165697349154	-0.079015722624855	-52.53561165832494	-6.787712802839746	1.208611793896011	17.04620870757404	-793.2218613758054	63.91873173708542	1.051556481702695	0.1239088245699343	1.570866152567217	-4.844860058281359	0.02360410941738329	-1.10723939844327	0.5564063157708923	-4.992879831689022	-4.992879831689108	0.214564285551863	-0.004025094437278446	-1.420224890612289	-0.4317821164321795	1.330751066701215e-09	-2.660798424982884e-09	4.549817989685432e-08	1.358787313652796e-08	2.200863190682277e-09	-1.46652773470208e-08	4.134000566180078e-08
1.05	-0.2460549561656464	0.0133211582184661	0.7008281789520753	1.297709338579517	-0.2476184805216397	0.007997166200136119	-0.4356778539621632	1.292912990691162	1.292912990691133	0.02788466049552027	0.1744195974005504	0.4341412031825149	0.08185502274868343	0.05431393939361208	0.01033541439769137	0.09380235681782817	-0.2851305016573928	0.001518351274939108	-0.06650261764560005	0.02521514588790937	-0.2970910941023558	-0.2970910941023585	0.01169573142126863	-0.001172128768769804	-0.07907735589623843	-0.02369320798947042	-0.2483397823903232	0.01305663504698705	0.0193487911161295	-0.4853580795187776	-0.01294279913769122	0.004939217871443798	0.2796824792172722	-0.09207318296666393	-52.66111487984441	-6.766103728501357	1.185291043063619	17.03006036386748	-792.992299960627	63.85035735707481	1.009760000467248	0.1308606086494437	1.556884605887941	-4.790286203654154	0.02848557347879137	-1.090062729547538	0.6529190104045718	-4.979940402515782	-4.979940402518117	0.2212062072509558	-0.01486797110082516	-1.418003891047722	-0.4211184784772689	1.694628830655237e-09	-2.470078623565872e-09	5.145190138423367e-08	1.660191262325192e-08	1.568775496114881e-09	-1.690806376438171e-08	4.6901358099484e-08
